#N canvas 503 194 535 248 10;
#X obj 29 143 outlet;
#X obj 189 51 loadbang;
#X msg 189 107 is open;
#X obj 39 118 spigot;
#X obj 106 15 tgl 15 0 empty empty printer 17 7 0 8 -262144 -1 -1 0
1;
#X obj 40 66 spigot;
#X obj 89 15 tgl 15 0 empty empty empty 17 7 0 10 -262144 -1 -1 0 1
;
#X obj 29 38 netreceive -u -b \$1;
#X obj 189 135 print OSCreceiver \$2 port \$1;
#X text 306 1 [OSCreceiver "Port" "Name"];
#X obj 419 119 outlet;
#X obj 419 92 \$1;
#X obj 419 61 bng 15 250 50 0 empty empty empty 17 7 0 10 -262144 -1
-1;
#X obj 189 75 t b b;
#X obj 29 91 osc/unpackOSC;
#X connect 1 0 13 0;
#X connect 2 0 8 0;
#X connect 3 0 8 0;
#X connect 4 0 3 1;
#X connect 5 0 8 0;
#X connect 6 0 5 1;
#X connect 7 0 5 0;
#X connect 7 0 14 0;
#X connect 11 0 10 0;
#X connect 12 0 11 0;
#X connect 13 0 2 0;
#X connect 13 1 11 0;
#X connect 14 0 0 0;
#X connect 14 0 3 0;
#X coords 0 -1 1 1 200 30 1 0 0;
