#N canvas 545 100 1053 680 10;
#X msg 524 217 disconnect;
#X obj 278 94 inlet;
#X obj 176 64 inlet;
#X obj 507 299 \$2;
#X obj 11 164 bng 15 250 50 0 empty reconnect reconnect 17 7 0 10 -262144
-1 -1;
#X obj 490 277 symbol \$1;
#X obj 278 201 t a b;
#X obj 490 322 pack s f;
#X obj 278 442 tgl 15 0 empty empty empty 17 7 0 10 -262144 -1 -1 1
1;
#X msg 490 349 connect \$1 \$2;
#X obj 490 395 t a a;
#X obj 479 468 print OSCsender \$3;
#X obj 473 179 t b b b b;
#X obj 260 513 f;
#X obj 260 535 route 0;
#X obj 473 496 metro 1000;
#X obj 278 412 netsend -u -b;
#X msg 105 93 /test 1;
#X obj 148 15 tgl 15 0 empty empty printer 17 7 0 8 -262144 -1 -1 0
1;
#X obj 131 15 tgl 15 0 empty empty empty 17 7 0 10 -262144 -1 -1 0
1;
#X obj 186 91 spigot;
#X obj 186 131 spigot;
#X obj 0 15 tgl 15 0 empty empty connected 17 7 0 8 -262144 -1 -1 1
1;
#X obj 66 15 bng 15 250 50 0 empty empty reconnect 17 7 0 8 -262144
-1 -1;
#X text 374 56 [OSCsender "IP" "Port" "Name"];
#X msg 517 419 set \$1;
#X obj 176 110 osc/packOSC;
#X obj 176 151 cyclone/prepend send;
#X obj 479 441 cyclone/prepend;
#X obj 714 291 ggee/shell;
#X msg 714 262 hostname -I;
#X obj 714 194 bng 15 250 50 0 empty empty empty 17 7 0 10 -262144
-1 -1;
#X obj 760 190 \$2;
#X obj 473 105 loadbang;
#X obj 714 320 cyclone/prepend;
#X obj 844 291 ggee/shell;
#X obj 844 320 cyclone/prepend;
#X msg 844 262 hostname;
#X obj 714 377 cyclone/prepend;
#X obj 473 142 t b b b;
#X obj 714 427 cyclone/prepend /SOURCE;
#X connect 0 0 16 0;
#X connect 1 0 6 0;
#X connect 2 0 20 0;
#X connect 2 0 26 0;
#X connect 3 0 7 1;
#X connect 4 0 12 0;
#X connect 5 0 7 0;
#X connect 6 0 16 0;
#X connect 6 1 0 0;
#X connect 7 0 9 0;
#X connect 8 0 13 1;
#X connect 8 0 22 0;
#X connect 8 0 30 0;
#X connect 9 0 10 0;
#X connect 10 0 16 0;
#X connect 10 1 25 0;
#X connect 12 0 15 0;
#X connect 12 1 5 0;
#X connect 12 2 3 0;
#X connect 12 3 0 0;
#X connect 13 0 14 0;
#X connect 14 0 4 0;
#X connect 15 0 13 0;
#X connect 16 0 8 0;
#X connect 16 0 28 0;
#X connect 17 0 26 0;
#X connect 18 0 21 1;
#X connect 19 0 20 1;
#X connect 20 0 11 0;
#X connect 21 0 11 0;
#X connect 23 0 4 0;
#X connect 25 0 28 0;
#X connect 26 0 21 0;
#X connect 26 0 27 0;
#X connect 27 0 16 0;
#X connect 28 0 11 0;
#X connect 29 0 34 0;
#X connect 30 0 29 0;
#X connect 31 0 32 0;
#X connect 32 0 34 1;
#X connect 33 0 39 0;
#X connect 34 0 38 0;
#X connect 35 0 36 0;
#X connect 36 0 38 1;
#X connect 37 0 35 0;
#X connect 38 0 40 0;
#X connect 39 0 12 0;
#X connect 39 1 31 0;
#X connect 39 2 37 0;
#X connect 40 0 26 0;
#X coords 0 -1 1 1 200 30 1 0 0;
